<svg width="351" height="69" viewBox="0 0 351 69" fill="none" xmlns="http://www.w3.org/2000/svg">
<path d="M331.449 54.9888C327.104 54.9888 323.344 54.1465 320.17 52.4619C317.021 50.7773 314.579 48.3848 312.846 45.2842C311.137 42.1592 310.282 38.4604 310.282 34.188C310.282 29.9155 311.137 26.229 312.846 23.1284C314.555 20.0278 316.984 17.6475 320.133 15.9873C323.283 14.3027 327.018 13.4604 331.339 13.4604C334.391 13.4604 337.26 14.0098 339.945 15.1084C342.655 16.1826 344.962 17.8062 346.867 19.979C348.771 22.1519 350.028 24.8862 350.639 28.1821L338.627 30.5991C338.188 27.8892 337.333 25.8872 336.063 24.5933C334.794 23.2993 333.207 22.6523 331.303 22.6523C328.593 22.6523 326.627 23.7632 325.407 25.9849C324.186 28.1821 323.576 30.9775 323.576 34.3711C323.576 37.7646 324.174 40.5234 325.37 42.6475C326.591 44.7471 328.568 45.7969 331.303 45.7969C333.134 45.7969 334.696 45.2476 335.99 44.1489C337.284 43.0259 338.249 41.2559 338.883 38.8389L350.419 40.7432C349.955 43.2822 349.088 45.4673 347.819 47.2983C346.574 49.105 345.06 50.5698 343.278 51.6929C341.496 52.8159 339.579 53.646 337.528 54.1831C335.502 54.7202 333.476 54.9888 331.449 54.9888Z" fill="#1E1E1E"/>
<path d="M265.312 54V14.4492H277.799V23.6411L277.506 21.9932C278.776 19.2588 280.485 17.1592 282.633 15.6943C284.806 14.2051 287.431 13.4604 290.507 13.4604C293.681 13.4604 296.232 14.1929 298.161 15.6577C300.114 17.0981 301.53 19.0879 302.409 21.627C303.288 24.1416 303.727 27.0103 303.727 30.2329V54H290.91V31.002C290.91 28.3652 290.519 26.3633 289.738 24.9961C288.981 23.6289 287.614 22.9453 285.636 22.9453C283.17 22.9453 281.303 24.0806 280.033 26.3511C278.788 28.5972 278.166 32.1128 278.166 36.8979V54H265.312Z" fill="#1E1E1E"/>
<path d="M222.355 68.2822V59.127H229.313C229.85 59.127 230.253 59.0293 230.521 58.834C230.79 58.6387 231.034 58.2603 231.254 57.6987L232.938 53.231L232.316 57.6621L214.555 14.4492H228.91L238.175 44.5884L237.187 44.5151L246.415 14.4492H260.771L242.57 60.9214C241.447 63.8022 239.921 65.7432 237.992 66.7441C236.088 67.7695 233.793 68.2822 231.107 68.2822H222.355Z" fill="#1E1E1E"/>
<path d="M189.982 54.9888C186.076 54.9888 182.401 54.415 178.959 53.2676C175.541 52.1201 172.672 50.3379 170.353 47.9209C168.034 45.5039 166.569 42.3911 165.958 38.5825L179.362 35.8726C179.582 38.7778 180.546 40.9141 182.255 42.2812C183.964 43.624 186.43 44.2954 189.652 44.2954C191.898 44.2954 193.632 44.0391 194.853 43.5264C196.073 42.9893 196.916 42.3179 197.379 41.5122C197.868 40.6821 198.112 39.8276 198.112 38.9487C198.112 37.313 197.404 36.0312 195.988 35.1035C194.596 34.1758 192.802 33.5166 190.604 33.126L185.917 32.2837C183.866 31.9419 181.803 31.4536 179.728 30.8188C177.677 30.1841 175.785 29.293 174.052 28.1455C172.343 26.998 170.963 25.5088 169.914 23.6777C168.888 21.8467 168.375 19.564 168.375 16.8296C168.375 13.3384 169.254 10.3599 171.012 7.89404C172.794 5.42822 175.26 3.54834 178.41 2.25439C181.583 0.936035 185.233 0.276855 189.359 0.276855C193.168 0.276855 196.647 0.850586 199.796 1.99805C202.946 3.12109 205.57 4.79346 207.67 7.01514C209.77 9.2124 211.137 11.9224 211.771 15.145L198.661 17.8916C198.441 16.5 198.039 15.2915 197.453 14.2661C196.891 13.2407 196.024 12.4351 194.853 11.8491C193.705 11.2632 192.118 10.9702 190.092 10.9702C188.212 10.9702 186.698 11.2144 185.551 11.7026C184.428 12.1909 183.61 12.8135 183.097 13.5703C182.584 14.3271 182.328 15.1328 182.328 15.9873C182.328 17.5986 183.207 18.8071 184.965 19.6128C186.723 20.394 188.981 21.0288 191.74 21.5171L196.574 22.4326C199.137 22.8721 201.615 23.6655 204.008 24.813C206.425 25.9604 208.402 27.5962 209.94 29.7202C211.479 31.8442 212.248 34.6274 212.248 38.0698C212.248 41.7563 211.283 44.8569 209.354 47.3716C207.426 49.8862 204.789 51.7905 201.444 53.0845C198.1 54.354 194.279 54.9888 189.982 54.9888Z" fill="#1E1E1E"/>
<path d="M152.079 54C148.588 54 145.976 53.2065 144.242 51.6196C142.509 50.0327 141.642 47.6768 141.642 44.5518V23.6045H136.295V14.4492H141.642V6.90527L154.496 3.71924V14.4492H161.564V23.6045H154.496V42.7939C154.496 43.624 154.606 44.1733 154.826 44.4419C155.07 44.7104 155.57 44.8447 156.327 44.8447H162.37V54H152.079Z" fill="#1E1E1E"/>
<path d="M114.25 54.9888C111.222 54.9888 108.317 54.5737 105.534 53.7437C102.775 52.9136 100.443 51.5952 98.5391 49.7886C96.6348 47.9819 95.4385 45.6138 94.9502 42.6841L106.339 40.4136C106.535 42.2935 107.218 43.7217 108.39 44.6982C109.562 45.6748 111.332 46.1631 113.7 46.1631C115.971 46.1631 117.606 45.7725 118.607 44.9912C119.608 44.21 120.109 43.3066 120.109 42.2812C120.109 41.3779 119.694 40.5479 118.864 39.791C118.034 39.0098 116.508 38.4604 114.286 38.1431L111.137 37.7036C109.696 37.5083 108.134 37.2275 106.449 36.8613C104.765 36.4951 103.166 35.9336 101.652 35.1768C100.138 34.3955 98.9053 33.3091 97.9531 31.9175C97.001 30.5259 96.5249 28.707 96.5249 26.4609C96.5249 23.8242 97.2329 21.5415 98.6489 19.6128C100.065 17.6597 102.067 16.146 104.655 15.0718C107.243 13.9976 110.27 13.4604 113.737 13.4604C116.74 13.4604 119.523 13.8877 122.086 14.7422C124.674 15.5967 126.847 16.8784 128.605 18.5874C130.387 20.272 131.535 22.3838 132.047 24.9229L120.805 27.23C120.634 26.4243 120.341 25.6309 119.926 24.8496C119.511 24.0439 118.852 23.3848 117.948 22.8721C117.069 22.335 115.836 22.0664 114.25 22.0664C112.541 22.0664 111.234 22.396 110.331 23.0552C109.428 23.6899 108.976 24.5078 108.976 25.5088C108.976 26.3633 109.306 27.0591 109.965 27.5962C110.624 28.1089 111.491 28.5239 112.565 28.8413C113.639 29.1343 114.799 29.3784 116.044 29.5737L119.853 30.123C121.952 30.416 123.979 30.9897 125.932 31.8442C127.885 32.6987 129.484 33.9316 130.729 35.543C131.999 37.1543 132.633 39.2661 132.633 41.8784C132.633 44.7593 131.828 47.1763 130.216 49.1294C128.605 51.0825 126.408 52.5474 123.625 53.5239C120.841 54.5005 117.716 54.9888 114.25 54.9888Z" fill="#1E1E1E"/>
<path d="M69.938 54.9888C65.8364 54.9888 62.2231 54.1099 59.0981 52.3521C55.9731 50.5942 53.5317 48.1528 51.7739 45.0278C50.0405 41.9028 49.1738 38.3018 49.1738 34.2246C49.1738 30.123 50.0405 26.522 51.7739 23.4214C53.5317 20.2964 55.9731 17.855 59.0981 16.0972C62.2231 14.3394 65.8364 13.4604 69.938 13.4604C74.0396 13.4604 77.6528 14.3394 80.7778 16.0972C83.9028 17.855 86.3442 20.2964 88.1021 23.4214C89.8599 26.522 90.7388 30.123 90.7388 34.2246C90.7388 38.3262 89.8599 41.9395 88.1021 45.0645C86.3442 48.165 83.8906 50.5942 80.7412 52.3521C77.6162 54.1099 74.0151 54.9888 69.938 54.9888ZM69.9746 45.7969C72.2695 45.7969 74.0884 44.7593 75.4312 42.6841C76.7739 40.6089 77.4453 37.7891 77.4453 34.2246C77.4453 30.6602 76.7739 27.8403 75.4312 25.7651C74.0884 23.6899 72.2573 22.6523 69.938 22.6523C67.6431 22.6523 65.8242 23.6899 64.4814 25.7651C63.1387 27.8403 62.4673 30.6602 62.4673 34.2246C62.4673 37.7891 63.1387 40.6089 64.4814 42.6841C65.8242 44.7593 67.6553 45.7969 69.9746 45.7969Z" fill="#1E1E1E"/>
<path d="M0.870605 54V1.26562H27.4209C33.793 1.26562 38.5659 2.6084 41.7397 5.29395C44.9136 7.97949 46.5005 12.0078 46.5005 17.3789C46.5005 22.7256 44.7671 26.7539 41.3003 29.4639C37.8335 32.1494 32.5967 33.4922 25.5898 33.4922H14.0908V54H0.870605ZM14.0908 23.3481H26.4688C28.6904 23.3481 30.3994 22.8354 31.5957 21.8101C32.792 20.7603 33.3901 19.2954 33.3901 17.4155C33.3901 15.5845 32.792 14.1318 31.5957 13.0576C30.4238 11.959 28.6172 11.4097 26.1758 11.4097H14.0908V23.3481Z" fill="#1E1E1E"/>
</svg>
